<svg width="26" height="40" viewBox="0 0 26 40" fill="none" xmlns="http://www.w3.org/2000/svg">
<path fill-rule="evenodd" clip-rule="evenodd" d="M9.81174 3.51672C12.0604 1.57362 15.0892 0.497314 18.2273 0.497314H24.5C25.3284 0.497314 26 1.11957 26 1.88715V9.1143C26 9.88189 25.3284 10.5041 24.5 10.5041H18.2273C18.0381 10.5041 17.8759 10.57 17.7718 10.6599C17.6713 10.7468 17.6364 10.843 17.6364 10.9211V14.9516H24.5C24.9664 14.9516 25.4062 15.1526 25.6901 15.4954C25.974 15.8383 26.0696 16.2839 25.9488 16.7013L23.8579 23.9285C23.6822 24.536 23.0879 24.9584 22.4091 24.9584H17.6364V38.0229C17.6364 38.7905 16.9648 39.4127 16.1364 39.4127H7.77273C6.9443 39.4127 6.27273 38.7905 6.27273 38.0229V24.9584H1.5C0.671573 24.9584 0 24.3362 0 23.5686V16.3414C0 15.5739 0.671573 14.9516 1.5 14.9516H6.27273V10.9211C6.27273 8.124 7.55955 5.46287 9.81174 3.51672ZM18.2273 3.27699C15.8199 3.27699 13.5304 4.10426 11.8578 5.54954C10.1888 6.99177 9.27273 8.92628 9.27273 10.9211V16.3414C9.27273 17.109 8.60115 17.7313 7.77273 17.7313H3V22.1788H7.77273C8.60115 22.1788 9.27273 22.801 9.27273 23.5686V36.6331H14.6364V23.5686C14.6364 22.801 15.3079 22.1788 16.1364 22.1788H21.2582L22.5449 17.7313H16.1364C15.3079 17.7313 14.6364 17.109 14.6364 16.3414V10.9211C14.6364 10.0408 15.042 9.21788 15.7257 8.62708C16.4059 8.03934 17.3074 7.72446 18.2273 7.72446H23V3.27699H18.2273Z" fill="#CBB7A4"/>
</svg>
