<svg width="47" height="36" viewBox="0 0 47 36" fill="none" xmlns="http://www.w3.org/2000/svg">
<path fill-rule="evenodd" clip-rule="evenodd" d="M28.741 0.823192C30.7376 0.134574 32.9182 0.0169796 34.9898 0.485379C36.7366 0.880328 38.3388 1.67685 39.6433 2.79475C41.4234 2.23254 43.1086 1.44909 44.65 0.466571L45.5002 1.61162L46.9555 1.94834C46.2715 4.48639 44.8852 6.81738 42.9367 8.72593C42.9777 9.0624 42.9989 9.40081 43.0001 9.73974L43.0002 9.74445C43.0002 20.6406 37.2021 28.5793 28.9412 32.5526C20.7212 36.5062 10.1941 36.4737 0.785578 31.7503C0.172473 31.4425 -0.130853 30.7839 0.0535674 30.1608C0.237988 29.5377 0.861512 29.1145 1.5583 29.1395C5.30567 29.2742 9.01007 28.5335 12.3211 27.0101C8.9982 25.29 6.66599 23.2043 5.08589 20.9498C3.12957 18.1585 2.38633 15.1949 2.25178 12.5201C2.1176 9.85242 2.5867 7.4461 3.08152 5.71714C3.32988 4.84934 3.58734 4.14314 3.78509 3.64886C3.88406 3.40149 3.96835 3.20652 4.02946 3.07021C4.06003 3.00203 4.08482 2.94846 4.10279 2.91028L4.1245 2.86462L4.13128 2.85061L4.13177 2.8496C4.14027 2.83207 4.14919 2.81465 4.15852 2.79736L5.50016 3.41892L6.71741 2.60677C8.59229 5.01926 11.1011 6.97882 14.0232 8.30787C16.5095 9.43873 19.2279 10.0825 22.0002 10.2022V9.80787C21.9735 7.85993 22.6086 5.95445 23.815 4.34857C25.0231 2.74046 26.7442 1.51192 28.741 0.823192ZM6.0421 6.22137C6.02181 6.28951 6.00153 6.35894 5.9813 6.42962C5.53862 7.97638 5.13272 10.0883 5.24853 12.3907C5.36399 14.686 5.99574 17.1442 7.60192 19.4359C9.20295 21.7203 11.8325 23.9259 16.0967 25.6385C16.6016 25.8413 16.9461 26.2839 16.9944 26.7918C17.0427 27.2996 16.787 27.7912 16.3282 28.0726C13.6788 29.6978 10.7247 30.8323 7.63492 31.4336C14.6332 33.4574 21.7858 32.8623 27.5591 30.0855C34.7976 26.604 39.9992 19.6334 40.0002 9.74713C39.9985 9.33263 39.9543 8.91908 39.8682 8.51171C39.7701 8.04814 39.9329 7.57015 40.3003 7.24269C41.138 6.49622 41.8626 5.66134 42.461 4.76004C41.5464 5.13087 40.6052 5.44844 39.6428 5.7103C39.0868 5.86161 38.4864 5.70258 38.1006 5.3018C37.1011 4.26327 35.768 3.52256 34.2786 3.18581C32.789 2.849 31.2207 2.93395 29.7876 3.42824C28.3548 3.92241 27.131 4.80005 26.2772 5.93656C25.4238 7.07257 24.9798 8.41397 25 9.77956L25.0002 9.79867V11.606C25.0002 12.3599 24.3515 12.9763 23.5381 12.9954C19.7827 13.0833 16.0601 12.3308 12.7012 10.8031C10.1829 9.65771 7.92666 8.10267 6.0421 6.22137Z" fill="#CBB7A4"/>
</svg>
